# xmcd CD database file
#
# Track frame offsets:
#	150
#	12865
#	26305
#	41362
#	53525
#	67762
#	82252
#	98552
#	110960
#	125850
#	138760
#	149812
#	162955
#	175860
#	191835
#	207667
#	221687
#	234887
#
# Disc length: 3328 seconds
#
# Revision: 4
# Processed by: cddbd v1.5.1PL2 Copyright (c) Steve Scherf et al.
# Submitted via: CDex 1.51
#
DISCID=020cfe12
DTITLE=Various Artist - VOICES - Music from the greatest divas ever
DYEAR=2000
DGENRE=Jazz
TTITLE0=Judy Garland - Get Happy
TTITLE1=Marilyn Monroe - I Wanne Be loved By You
TTITLE2=Billie Holiday - Love Me Or Leave Me
TTITLE3=Ella Fitzgerald - It's Only A Papermoon
TTITLE4=Peggy Lee - September In The Rain
TTITLE5=Doris Day - Sentimental Journey
TTITLE6=Sarah Vaughan - 'Round Midnight
TTITLE7=Lena Horne - At Long Last Love
TTITLE8=Billie Holiday - Georgia On My Mind
TTITLE9=Dinah Washington - Blues For A Day
TTITLE10=Dinah Shore - Don't Leave Me Daddy
TTITLE11=Marlene Dietrich - Falling In Love Again
TTITLE12=Ethel Merman - You're The Top
TTITLE13=Maxine Sullivan - It Ain't Necessarily So
TTITLE14=Marilyn Monroe - Diamonds Are A Girl's Best Friends
TTITLE15=Ella Fitzgerald - Time Alone Will Tell
TTITLE16=Doris Day - My Young And Foolish Heart
TTITLE17=Judy Garland - Moon River
EXTD=YEAR: 2000
EXTT0=
EXTT1=
EXTT2=
EXTT3=
EXTT4=
EXTT5=
EXTT6=
EXTT7=
EXTT8=
EXTT9=
EXTT10=
EXTT11=
EXTT12=
EXTT13=
EXTT14=
EXTT15=
EXTT16=
EXTT17=
PLAYORDER=
